# xmcd CD database file
# Copyright (C) 1993-1998 Ti Kan
# 
# Track frame offsets:
#     182
#     12802
#     26837
#     37352
#     49842
#     63015
#     82357
#     95582
#     107387
#     119292
#     132872
#     142445
#     156540
# 
# Disc length: 2250 seconds
# 
# Revision: 1
# Processed by: cddbd v1.4b41PL1 Copyright (c) Steve Scherf et al.
# Submitted via: DiscPlay 4.0.4
# 
DISCID=be08c80d
DTITLE=Nina Simone - broadway   blues   ballads
DYEAR=1900
DGENRE=
TTITLE0=Don't Let Me Be Misunderstood
TTITLE1=Night Song
TTITLE2=The Laziest Gal in Town
TTITLE3=Something Wonderful
TTITLE4=Don't Take All Night
TTITLE5=Nobody
TTITLE6=I Am Blessed
TTITLE7=Oh This I'm Sure
TTITLE8=See-Line Woman
TTITLE9=Our Love (Will See Us Through)
TTITLE10=How Can I?
TTITLE11=The Last Rose of Summer
TTITLE12=A Monster - bonus track
EXTD=
EXTT0=
EXTT1=
EXTT2=
EXTT3=
EXTT4=
EXTT5=
EXTT6=
EXTT7=
EXTT8=
EXTT9=
EXTT10=
EXTT11=
EXTT12=
PLAYORDER=
